<?xml version="1.0" standalone="no"?>
<!DOCTYPE svg PUBLIC "-//W3C//DTD SVG 20010904//EN"
 "http://www.w3.org/TR/2001/REC-SVG-20010904/DTD/svg10.dtd">
<svg version="1.0" xmlns="http://www.w3.org/2000/svg"
 width="1080.000000pt" height="1080.000000pt" viewBox="0 0 1080.000000 1080.000000"
 preserveAspectRatio="xMidYMid meet">
<metadata>
Created by potrace 1.11, written by Peter Selinger 2001-2013
</metadata>
<g transform="translate(0.000000,1080.000000) scale(0.100000,-0.100000)"
fill="#000000" stroke="none">
<path d="M5547 10244 c-1 -1 -38 -5 -82 -8 -83 -8 -91 -9 -190 -25 -71 -12
-105 -19 -165 -32 -25 -6 -56 -13 -70 -16 -68 -12 -361 -118 -483 -173 -530
-240 -1037 -615 -1588 -1175 -70 -71 -140 -143 -155 -160 -15 -16 -52 -57 -83
-91 -83 -90 -121 -132 -176 -199 -28 -33 -53 -62 -56 -65 -18 -16 -257 -323
-346 -445 -36 -49 -69 -89 -75 -87 -5 1 -7 -2 -4 -7 4 -5 -31 -67 -77 -138
-46 -70 -99 -154 -118 -186 -72 -123 -100 -173 -106 -189 -3 -10 -10 -18 -15
-18 -5 0 -7 -4 -3 -9 3 -5 1 -12 -4 -15 -8 -5 -111 -210 -153 -306 -9 -19 -28
-60 -42 -91 -14 -31 -26 -61 -26 -67 0 -7 -4 -12 -8 -12 -5 0 -9 -6 -9 -12 0
-7 -24 -75 -52 -150 -70 -188 -153 -467 -175 -588 -2 -14 -11 -56 -20 -95 -13
-59 -23 -125 -51 -330 -2 -16 -7 -64 -10 -105 -3 -41 -8 -93 -11 -115 -9 -89
-2 -501 10 -565 2 -14 7 -47 11 -75 24 -194 117 -472 213 -640 97 -168 244
-341 392 -461 19 -16 37 -31 40 -35 3 -3 15 -11 28 -18 12 -7 20 -16 17 -22
-4 -5 -3 -9 2 -8 18 3 30 -2 49 -19 32 -29 63 -48 211 -133 266 -152 509 -232
838 -275 118 -16 483 -9 590 10 32 6 129 20 139 21 6 0 11 -91 13 -215 3 -246
6 -310 13 -310 3 0 5 -10 6 -22 2 -89 69 -369 113 -473 125 -296 276 -498 529
-706 37 -31 237 -166 282 -191 25 -14 63 -35 84 -47 165 -94 485 -203 666
-227 25 -3 53 -8 64 -10 95 -18 385 -24 526 -10 110 10 163 17 169 21 3 2 31
6 61 10 30 4 84 14 120 22 36 8 75 17 88 19 89 17 404 118 572 183 205 80 474
214 647 323 403 253 776 596 880 811 56 114 38 255 -38 310 -94 68 -177 30
-664 -304 -88 -60 -206 -136 -263 -169 -216 -125 -550 -279 -573 -264 -7 4 -9
3 -6 -3 10 -17 -439 -168 -560 -189 -15 -3 -44 -9 -63 -14 -19 -5 -51 -12 -70
-15 -19 -3 -60 -10 -90 -15 -270 -47 -600 -22 -840 62 -518 182 -842 697 -834
1328 1 128 13 299 22 334 6 21 28 36 126 81 408 187 778 445 1080 750 134 136
218 257 244 355 25 96 -11 211 -77 248 -95 53 -163 21 -631 -299 -198 -136
-513 -320 -525 -307 -6 7 95 240 167 389 316 645 738 1239 1224 1723 181 181
402 373 559 488 44 32 89 67 100 77 11 10 30 23 42 29 12 7 27 18 35 25 18 17
178 125 268 179 289 177 602 308 820 342 85 14 239 17 294 7 161 -30 259 -142
285 -325 9 -59 7 -231 -3 -264 -3 -10 -7 -35 -11 -57 -3 -22 -15 -82 -26 -135
-11 -52 -23 -110 -26 -127 -3 -18 -8 -33 -12 -33 -3 0 -7 -15 -8 -32 -1 -18
-6 -51 -12 -73 -5 -22 -12 -56 -15 -75 -3 -19 -8 -48 -11 -65 -3 -16 -8 -45
-11 -64 -35 -212 65 -394 226 -408 96 -9 224 42 390 155 70 48 210 186 210
207 0 7 4 15 8 17 12 5 50 98 62 151 9 44 33 213 40 287 7 69 5 516 -2 560
-43 272 -232 559 -477 723 -201 135 -422 189 -741 182 -96 -2 -184 -5 -195 -8
-11 -2 -47 -8 -80 -11 -168 -20 -500 -107 -650 -171 -16 -7 -45 -19 -64 -26
-78 -31 -334 -161 -440 -223 -390 -229 -751 -516 -1152 -916 -315 -314 -532
-558 -739 -830 -14 -18 -32 -41 -40 -50 -8 -10 -22 -28 -30 -40 -8 -12 -37
-52 -64 -88 -46 -63 -189 -274 -211 -310 -59 -98 -152 -254 -168 -282 -39 -69
-217 -428 -217 -439 0 -6 -5 -11 -12 -11 -6 0 -9 -2 -6 -5 3 -3 -17 -61 -44
-128 -41 -102 -135 -368 -143 -402 -1 -5 -10 -37 -20 -70 -10 -33 -20 -64 -21
-70 -22 -97 -35 -140 -45 -146 -17 -10 -132 -31 -194 -34 -27 -2 -58 -6 -68
-10 -24 -10 -293 -11 -382 -3 -38 4 -95 12 -125 18 -30 6 -67 13 -81 15 -58
11 -211 66 -285 104 -362 182 -605 542 -675 994 -27 175 -17 599 15 619 8 5 7
8 -2 8 -7 0 -11 4 -8 8 3 5 12 55 22 113 9 57 20 109 25 115 5 6 7 13 4 16
-21 21 172 619 244 756 10 19 64 134 66 142 1 3 14 31 28 63 18 37 31 55 39
51 7 -5 8 -3 4 5 -12 19 161 338 302 556 25 39 61 95 81 125 19 30 80 118 135
195 332 466 710 865 1146 1211 144 114 324 244 339 244 5 0 11 3 13 8 8 18
221 151 368 228 203 107 437 195 590 220 14 3 36 6 50 9 85 15 200 15 268 1
194 -41 279 -158 289 -403 3 -62 2 -120 -2 -130 -5 -10 -7 -25 -6 -35 1 -9 -5
-54 -13 -100 -9 -45 -18 -96 -20 -113 -3 -16 -14 -66 -25 -110 -78 -313 -93
-490 -53 -595 22 -57 88 -134 123 -145 11 -4 19 -10 19 -14 0 -3 8 -7 18 -8 9
-1 35 -2 57 -4 59 -4 111 9 195 48 187 89 349 224 416 349 24 44 52 141 63
214 25 167 31 251 36 475 3 196 -11 315 -52 445 -15 47 -26 88 -25 93 1 4 -2
7 -7 7 -5 0 -17 20 -28 45 -10 25 -21 45 -25 45 -5 0 -8 5 -8 12 0 6 -32 54
-71 105 -195 257 -438 395 -769 439 -48 6 -317 13 -323 8z"/>
</g>
</svg>
